<svg xmlns="http://www.w3.org/2000/svg" width="532" height="360" viewBox="0 0 532 360" fill="none"><g clip-path="url(#clip0_9364_378)"><path d="M238.775 195.515H208.536C178.644 195.515 152.925 220.438 152.925 250.896C152.925 250.896 238.428 251.241 239.468 250.896C247.815 250.896 256.146 249.862 264.147 248.137C295.771 240.876 322.892 221.835 340.263 195.533C350.447 180.7 357.27 163.711 360.041 145.308H303.253C295.252 173.68 269.533 194.67 238.775 195.533V195.515Z" fill="white"></path><path d="M502.16 251.241C518.64 251.241 532 237.937 532 221.524C532 205.112 518.64 191.807 502.16 191.807C485.679 191.807 472.319 205.112 472.319 221.524C472.319 237.937 485.679 251.241 502.16 251.241Z" fill="white"></path><path d="M524.917 7.05414C520.189 2.34563 512.239 0 501.103 0H166.192C158.866 0 152.925 5.91582 152.925 13.2114V56.5539H152.96C152.96 56.8298 152.925 57.1058 152.925 57.399V98.9305H55.6108V57.399C55.6108 26.9403 30.5851 2.01793 0 2.01793V195.86C0 226.319 25.0257 251.241 55.6108 251.241V154.329H152.925V219.213C162.364 200.086 182.125 186.909 204.986 186.909C206.181 186.909 207.358 186.961 208.536 187.03V61.4521C215.083 59.4169 229.301 56.1572 236.749 56.1572C274.85 56.1572 306.041 87.4093 306.041 126.026V126.371C306.041 129.165 305.868 131.907 305.539 134.615H361.184C361.358 131.89 361.461 129.148 361.461 126.371V126.026C361.461 100.328 353.651 76.6987 340.748 56.4849H384.218V100.155C384.218 100.155 384.149 100.224 384.097 100.259V248.396C384.097 248.396 384.166 248.396 384.218 248.396C414.319 248.327 438.998 224.456 439.673 194.308V56.4849H524.362C525.575 54.5532 527.151 50.8795 529.091 45.4466C531.03 40.0137 532 34.0462 532 27.5267C532 18.5926 529.645 11.7799 524.917 7.07139V7.05414Z" fill="white"></path><path d="M55 358.704V315.562C55 310.593 58.3539 309.296 61.5651 309.296C64.919 309.296 66.9171 310.521 67.488 311.025C68.8438 312.393 82.3308 332.343 85.9701 338.321V314.626C85.9701 310.665 88.4677 309.296 92.1784 309.296C94.9615 309.296 97.245 310.233 97.7445 310.449V358.704H86.541C83.9721 354.382 71.9123 335.729 66.7744 328.31V358.704H55Z" fill="white"></path><path d="M107.753 358.704V316.138C107.753 311.601 110.108 309.296 114.818 309.296H139.223C143.576 309.296 145.289 311.241 145.289 314.77C145.289 317.363 144.289 319.74 143.79 320.532H119.67V328.238H138.295C142.648 328.238 144.361 330.183 144.361 333.712C144.361 336.305 143.362 338.681 142.862 339.474H119.67V347.468H144.932V358.704H107.753Z" fill="white"></path><path d="M176.303 358.704H163.673C159.676 349.485 152.826 329.463 151.185 324.133C149.972 320.172 148.83 317.363 148.83 314.482C148.83 311.241 150.828 309.296 154.61 309.296C157.678 309.296 159.819 310.305 160.319 310.593C162.245 318.443 167.241 334.648 170.095 343.147C172.735 333.928 175.661 321.972 177.588 314.482C178.373 311.385 179.8 309.296 184.081 309.296C186.865 309.296 189.505 310.521 190.004 310.809C191.503 317.723 195.499 334.288 197.925 343.075C200.922 333.928 204.348 321.756 206.06 314.986C207.131 310.881 208.843 309.296 213.125 309.296C216.836 309.296 219.761 311.241 220.19 311.457C216.479 325.069 210.699 341.634 203.848 358.704H191.146C189.433 354.526 185.794 341.202 183.867 332.56C181.584 341.202 178.016 354.526 176.303 358.704Z" fill="white"></path><path d="M224.5 359V316.435C224.5 311.897 226.855 309.593 231.565 309.593H254.328C258.681 309.593 260.394 311.537 260.394 315.066C260.394 317.659 259.395 320.036 258.895 320.828H236.417V329.183H252.473C256.826 329.183 258.539 331.127 258.539 334.656C258.539 337.249 257.54 339.626 257.04 340.418H236.417V359H224.5Z" fill="white"></path><path d="M263.963 334.296C263.963 319.676 275.523 308.296 290.437 308.296C305.351 308.296 316.911 319.676 316.911 334.296C316.911 348.917 305.351 360.296 290.437 360.296C275.523 360.296 263.963 348.917 263.963 334.296ZM290.437 349.061C298.643 349.061 304.424 342.651 304.424 334.296C304.424 325.87 298.643 319.532 290.437 319.532C282.231 319.532 276.45 325.87 276.45 334.296C276.45 342.651 282.231 349.061 290.437 349.061Z" fill="white"></path><path d="M324.78 359V316.003C324.78 311.681 327.206 310.025 329.704 309.665C331.631 309.305 334.485 308.873 342.477 308.873C359.532 308.873 364.884 317.011 364.884 325.87C364.884 331.704 362.672 336.529 357.249 339.482C360.103 344.091 364.385 352.086 367.596 359H353.966C352.967 356.839 348.115 346.108 345.617 342.435C344.261 342.651 342.905 342.579 341.407 342.579C340.336 342.579 336.911 342.435 336.412 342.291V359H324.78ZM336.412 319.388V332.064C336.982 332.064 338.338 332.424 342.691 332.424C350.969 332.424 352.682 329.255 352.682 325.942C352.682 322.917 351.326 319.1 342.192 319.1C338.838 319.1 336.911 319.316 336.412 319.388Z" fill="white"></path><path d="M414.963 355.327H415.106C413.108 356.839 407.328 360.296 397.195 360.296C382.923 360.296 370.863 351.582 370.863 334.512C370.863 317.875 382.423 308.296 396.98 308.296C404.83 308.296 409.468 310.601 411.609 311.97C413.821 313.626 414.678 315.355 414.678 317.299C414.678 320.9 411.395 323.997 410.111 324.717C408.184 322.773 404.259 319.316 397.48 319.316C389.202 319.316 383.351 325.078 383.351 334.512C383.351 344.091 389.773 349.133 398.336 349.133C403.688 349.133 407.613 347.476 409.611 346.036L414.963 355.327Z" fill="white"></path><path d="M420.879 359V316.435C420.879 311.897 423.234 309.593 427.943 309.593H452.348C456.701 309.593 458.414 311.537 458.414 315.066C458.414 317.659 457.415 320.036 456.915 320.828H432.796V328.535H451.421C455.774 328.535 457.486 330.479 457.486 334.008C457.486 336.601 456.487 338.978 455.988 339.77H432.796V347.765H458.057V359H420.879Z" fill="white"></path></g><defs><clipPath id="clip0_9364_378"><rect width="532" height="360" fill="white"></rect></clipPath></defs></svg>